<svg width="678" height="282" viewBox="0 0 678 282" fill="none" xmlns="http://www.w3.org/2000/svg">
<mask id="mask0_7_178" style="mask-type:luminance" maskUnits="userSpaceOnUse" x="21" y="23" width="169" height="244">
<path d="M189.969 23.7432H21V266.536H189.969V23.7432Z" fill="white"/>
</mask>
<g mask="url(#mask0_7_178)">
<path d="M105.121 23.7432C118.249 23.7357 131.196 26.8037 142.926 32.7011C154.656 38.5983 164.842 47.1614 172.668 57.704C180.495 68.2468 185.744 80.4768 187.996 93.4134C190.247 106.35 189.439 119.634 185.635 132.203C185.624 132.233 181.377 143.982 176.898 151.719L104.945 266.074V266.184L104.922 266.107L104.911 266.184V266.074C104.795 265.884 38.5629 157.291 35.899 152.215C28.9361 138.991 21.3342 125.26 21.0147 107.87C20.1334 61.4096 58.672 23.7433 105.121 23.7432ZM104.782 54.6284C76.0372 54.6285 52.735 77.9365 52.735 106.688C52.735 122.329 60.8808 135.93 69.9445 146.295C79.074 156.734 89.7299 164.575 96.0721 168.795C101.376 172.324 108.188 172.324 113.491 168.795C119.833 164.575 130.49 156.734 139.619 146.295C148.682 135.93 156.828 122.329 156.828 106.688C156.828 77.9365 133.527 54.6284 104.782 54.6284Z" fill="#26567D"/>
<path d="M96.5858 79.0792V94.9105L71.0102 109.469C70.6697 109.663 70.3867 109.943 70.1899 110.281C69.9931 110.62 69.8895 111.003 69.8895 111.395V120.467C69.8895 121.939 71.3036 123.002 72.7246 122.597L96.5858 115.806V130.054L88.5769 136.039C88.0166 136.456 87.6871 137.114 87.6871 137.811V143.351C87.6871 144.793 89.0469 145.851 90.4512 145.501L105.485 141.135L120.518 145.501C121.923 145.851 123.282 144.793 123.282 143.351V137.811C123.282 137.113 122.953 136.456 122.393 136.039L114.383 130.054V115.806L138.243 122.597C139.664 123.002 141.08 121.939 141.08 120.467V111.395C141.08 110.599 140.652 109.865 139.959 109.47L114.383 94.9105V79.0792C114.383 74.1826 110.4 65.7814 105.485 65.7814C100.569 65.7814 96.5858 74.1826 96.5858 79.0792Z" fill="#FF9924"/>
</g>
<path d="M248.251 117.943C241.046 117.943 234.142 116.999 227.537 115.112C220.933 113.139 215.615 110.608 211.584 107.519L218.66 91.8194C222.52 94.5648 227.065 96.8383 232.298 98.6399C237.615 100.356 242.976 101.214 248.38 101.214C252.497 101.214 255.799 100.828 258.286 100.055C260.859 99.1976 262.746 98.0394 263.947 96.5809C265.148 95.1224 265.748 93.4495 265.748 91.5621C265.748 89.1599 264.805 87.2724 262.918 85.8998C261.031 84.4413 258.544 83.2831 255.456 82.4252C252.368 81.4814 248.937 80.6235 245.163 79.8514C241.475 78.9935 237.744 77.964 233.97 76.7629C230.282 75.5618 226.894 74.0175 223.806 72.1301C220.718 70.2427 218.188 67.7547 216.215 64.6661C214.328 61.5776 213.385 57.6312 213.385 52.8268C213.385 47.6793 214.757 43.0036 217.502 38.7998C220.332 34.5101 224.535 31.1213 230.11 28.6334C235.771 26.0596 242.847 24.7727 251.339 24.7727C257 24.7727 262.575 25.459 268.064 26.8317C273.553 28.1186 278.4 30.0918 282.602 32.7514L276.17 48.5801C271.967 46.1779 267.764 44.4192 263.561 43.3039C259.358 42.1028 255.241 41.5022 251.21 41.5022C247.179 41.5022 243.877 41.9741 241.303 42.9178C238.73 43.8615 236.886 45.1055 235.771 46.6498C234.656 48.1082 234.099 49.8241 234.099 51.7973C234.099 54.1137 235.042 56.0011 236.929 57.4596C238.816 58.8323 241.304 59.9476 244.391 60.8055C247.479 61.6634 250.867 62.5213 254.555 63.3793C258.329 64.2372 262.06 65.2238 265.748 66.3391C269.522 67.4544 272.953 68.9558 276.041 70.8432C279.129 72.7306 281.616 75.2186 283.503 78.3071C285.476 81.3957 286.462 85.2992 286.462 90.0178C286.462 95.0795 285.047 99.7123 282.216 103.916C279.386 108.12 275.14 111.509 269.479 114.083C263.904 116.656 256.828 117.943 248.251 117.943ZM337.499 46.135C342.989 46.135 347.878 47.2503 352.166 49.4809C356.541 51.6257 359.971 54.9716 362.459 59.5186C364.946 63.9798 366.19 69.7279 366.19 76.7629V116.399H346.119V79.8514C346.119 74.2749 344.876 70.1569 342.388 67.4973C339.987 64.8377 336.556 63.5079 332.096 63.5079C328.922 63.5079 326.049 64.1943 323.476 65.567C320.988 66.8539 319.016 68.87 317.558 71.6153C316.185 74.3607 315.499 77.8782 315.499 82.1678V116.399H295.429V20.912H315.499V66.3391L310.996 60.5481C313.483 55.9153 317.043 52.3549 321.675 49.867C326.306 47.379 331.581 46.135 337.499 46.135ZM413.962 117.428C406.586 117.428 400.024 115.884 394.277 112.796C388.617 109.707 384.114 105.503 380.768 100.184C377.509 94.7793 375.879 88.6451 375.879 81.7817C375.879 74.8325 377.509 68.6984 380.768 63.3793C384.114 57.9743 388.617 53.7705 394.277 50.7678C400.024 47.6793 406.586 46.135 413.962 46.135C421.252 46.135 427.771 47.6793 433.518 50.7678C439.264 53.7705 443.767 57.9314 447.027 63.2506C450.286 68.5697 451.916 74.7467 451.916 81.7817C451.916 88.6451 450.286 94.7793 447.027 100.184C443.767 105.503 439.264 109.707 433.518 112.796C427.771 115.884 421.252 117.428 413.962 117.428ZM413.962 100.956C417.307 100.956 420.309 100.184 422.968 98.6399C425.627 97.0957 427.728 94.9079 429.272 92.0768C430.816 89.1599 431.588 85.7282 431.588 81.7817C431.588 77.7495 430.816 74.3178 429.272 71.4866C427.728 68.6555 425.627 66.4678 422.968 64.9235C420.309 63.3793 417.307 62.6071 413.962 62.6071C410.617 62.6071 407.615 63.3793 404.956 64.9235C402.297 66.4678 400.153 68.6555 398.523 71.4866C396.979 74.3178 396.207 77.7495 396.207 81.7817C396.207 85.7282 396.979 89.1599 398.523 92.0768C400.153 94.9079 402.297 97.0957 404.956 98.6399C407.615 100.184 410.617 100.956 413.962 100.956ZM490.677 117.428C484.93 117.428 479.784 116.313 475.238 114.083C470.778 111.852 467.304 108.463 464.817 103.916C462.329 99.2834 461.086 93.4066 461.086 86.2858V47.1645H481.156V83.326C481.156 89.0741 482.357 93.3208 484.758 96.0662C487.246 98.7257 490.719 100.055 495.18 100.055C498.267 100.055 501.012 99.412 503.414 98.1252C505.815 96.7525 507.702 94.6935 509.075 91.9481C510.447 89.117 511.133 85.5995 511.133 81.3957V47.1645H531.204V116.399H512.162V97.353L515.636 102.887C513.32 107.691 509.889 111.337 505.344 113.825C500.883 116.227 495.994 117.428 490.677 117.428ZM545.938 116.399V20.912H566.009V116.399H545.938ZM610.496 117.428C603.977 117.428 598.102 115.97 592.87 113.053C587.638 110.05 583.478 105.889 580.39 100.57C577.388 95.2511 575.887 88.9883 575.887 81.7817C575.887 74.4894 577.388 68.1836 580.39 62.8645C583.478 57.5454 587.638 53.4273 592.87 50.5104C598.102 47.5935 603.977 46.135 610.496 46.135C616.328 46.135 621.432 47.4219 625.806 49.9957C630.18 52.5694 633.568 56.473 635.97 61.7063C638.371 66.9396 639.572 73.6314 639.572 81.7817C639.572 89.8462 638.414 96.538 636.098 101.857C633.783 107.09 630.437 110.994 626.063 113.568C621.775 116.142 616.585 117.428 610.496 117.428ZM613.969 100.956C617.229 100.956 620.188 100.184 622.847 98.6399C625.506 97.0957 627.607 94.9079 629.151 92.0768C630.781 89.1599 631.595 85.7282 631.595 81.7817C631.595 77.7495 630.781 74.3178 629.151 71.4866C627.607 68.6555 625.506 66.4678 622.847 64.9235C620.188 63.3793 617.229 62.6071 613.969 62.6071C610.624 62.6071 607.622 63.3793 604.963 64.9235C602.305 66.4678 600.16 68.6555 598.531 71.4866C596.987 74.3178 596.215 77.7495 596.215 81.7817C596.215 85.7282 596.987 89.1599 598.531 92.0768C600.16 94.9079 602.305 97.0957 604.963 98.6399C607.622 100.184 610.624 100.956 613.969 100.956ZM632.11 116.399V102.243L632.496 81.653L631.209 61.1916V20.912H651.28V116.399H632.11Z" fill="#26567D"/>
<path d="M226.036 263.104V169.805H251.639V263.104H226.036Z" fill="#FF9924"/>
<path d="M622.101 139.563C602.846 139.563 590.375 147.454 580.583 161.527C578.807 164.08 579.355 167.58 581.833 169.459L592.238 177.351C594.741 179.249 598.302 178.805 600.261 176.351C606.303 168.779 610.786 164.419 620.224 164.419C627.645 164.419 636.824 169.196 636.824 176.394C636.824 181.836 632.333 184.63 625.006 188.74C616.46 193.531 605.153 199.496 605.153 214.414V216.776C605.153 219.974 607.745 222.567 610.943 222.567H628.424C631.622 222.567 634.214 219.974 634.214 216.776V215.383C634.214 205.041 664.433 204.611 664.433 176.625C664.433 155.55 642.577 139.563 622.101 139.563ZM619.684 229.675C610.469 229.675 602.974 237.173 602.974 246.39C602.974 255.606 610.469 263.104 619.684 263.104C628.898 263.104 636.394 255.606 636.394 246.39C636.394 237.173 628.898 229.675 619.684 229.675Z" fill="#FF9924"/>
<path d="M387.93 200.475H417.949V263.104H394.448V255.726C386.328 262.246 375.578 265.506 362.198 265.506C350.99 265.506 340.755 263.104 331.492 258.299C322.229 253.495 314.852 246.518 309.363 237.366C303.988 228.101 301.301 217.062 301.301 204.25C301.301 191.896 304.159 180.915 309.878 171.306C315.596 161.583 323.544 154.033 333.722 148.657C343.901 143.28 355.394 140.592 368.202 140.592C379.41 140.592 389.473 142.48 398.394 146.255C407.314 150.03 414.748 155.463 420.694 162.555L399.08 182.116C390.96 173.193 381.239 168.732 369.918 168.732C359.511 168.732 351.162 171.935 344.872 178.341C338.697 184.632 335.609 193.211 335.609 204.079C335.609 215.06 338.525 223.468 344.358 229.302C350.19 235.136 357.566 238.052 366.487 238.052C375.064 238.052 382.211 235.764 387.93 231.189V200.475ZM500.038 265.506C487.344 265.506 475.908 262.818 465.729 257.442C455.666 252.065 447.717 244.63 441.885 235.136C436.167 225.641 433.308 214.946 433.308 203.049C433.308 191.152 436.167 180.457 441.885 170.963C447.717 161.468 455.666 154.033 465.729 148.657C475.908 143.28 487.344 140.592 500.038 140.592C512.732 140.592 524.111 143.28 534.175 148.657C544.353 154.033 552.302 161.468 558.019 170.963C563.852 180.457 566.768 191.152 566.768 203.049C566.768 214.946 563.852 225.641 558.019 235.136C552.302 244.63 544.353 252.065 534.175 257.442C524.111 262.818 512.732 265.506 500.038 265.506ZM500.038 237.366C506.099 237.366 511.589 235.936 516.506 233.076C521.424 230.217 525.312 226.213 528.171 221.066C531.03 215.804 532.459 209.798 532.459 203.049C532.459 196.3 531.03 190.352 528.171 185.204C525.312 179.943 521.424 175.881 516.506 173.022C511.589 170.162 506.099 168.732 500.038 168.732C493.977 168.732 488.488 170.162 483.57 173.022C478.652 175.881 474.764 179.943 471.905 185.204C469.046 190.352 467.616 196.3 467.616 203.049C467.616 209.798 469.046 215.804 471.905 221.066C474.764 226.213 478.652 230.217 483.57 233.076C488.488 235.936 493.977 237.366 500.038 237.366Z" fill="#FF9924"/>
</svg>
